<?xml version="1.0" encoding="utf-8"?>
<!-- Generator: Adobe Illustrator 27.5.0, SVG Export Plug-In . SVG Version: 6.00 Build 0)  -->
<svg version="1.1" baseProfile="tiny" id="Layer_1" xmlns="http://www.w3.org/2000/svg" xmlns:xlink="http://www.w3.org/1999/xlink"
	 x="0px" y="0px" width="452.8px" height="140px" viewBox="0 0 452.8 140" overflow="visible" xml:space="preserve">
<path fill="#FFE000" d="M66.5,82.5h-0.3L55.5,23.8h-13L32.2,82.5h-0.3l-9.7-58.7H7.5L24.9,116h13.2l10.7-60.9h0.3L60.6,116h13.2
	L90,23.8H75.3L66.5,82.5z M130.7,67.5c7.6-3.1,11-11.4,11-19.3c0-15.7-7.5-24.4-24.5-24.4H93.7V116h25c18,0,24.7-11.5,24.7-26.7
	C143.4,77.4,138.7,71,130.7,67.5 M109.5,36.8h6c7,0,10.3,4.5,10.3,13c0,7.7-4.6,11.7-10.6,11.7h-5.7V36.8z M116.2,103h-6.6V74.6h5.1
	c9.4,0,13,4.7,13,14.2C127.6,98.1,124.6,103,116.2,103 M161.8,136.1h284.3V4H161.8V136.1z M172.7,125.2V14.9h262.5v110.3H172.7z
	 M187.1,116.2V23.8h23.3c16.2,0,24.3,8.1,24.3,24.4c0,4.3-0.9,8.2-2.7,11.8c-1.8,3.5-4.5,6.1-8.2,7.5c4.1,1.8,7.3,4.4,9.4,8
	c2.2,3.5,3.2,8.2,3.2,14c0,8.2-2,14.7-5.9,19.5c-4,4.8-10.2,7.2-18.7,7.2H187.1z M202.8,36.9v24.8h5.7c3.1,0,5.6-1,7.6-3.1
	c2-2.1,2.9-5,2.9-8.7c0-8.7-3.4-13.1-10.3-13.1H202.8z M202.8,74.7v28.4h6.6c4.1,0,7-1.1,8.8-3.4c1.8-2.3,2.7-5.9,2.7-10.7
	c0-3.3-0.4-5.9-1.3-8c-0.9-2.1-2.2-3.6-4.1-4.7c-1.9-1-4.4-1.5-7.5-1.5H202.8z M256.5,95.7l-2.8,20.5h-15.2l16.8-92.4h19.5
	l16.9,92.4h-15.2l-2.8-20.5H256.5z M265,42.2l-6.3,39.7h12.7l-6.2-39.7H265z M340.2,44.9l-14.9,1.8c-0.3-3.6-1.2-6.3-2.8-7.9
	c-1.6-1.6-3.4-2.4-5.5-2.4c-2.6,0-4.5,0.8-5.8,2.3c-1.3,1.5-2,3.8-2,6.7c0,3.5,1,6.3,3.1,8.6c2.1,2.3,5.9,5.9,11.6,10.9
	s10,9.7,12.9,14c2.9,4.3,4.3,9.3,4.3,14.9c0,7.4-2.3,13.2-6.8,17.4c-4.5,4.2-10.6,6.3-18.1,6.3c-7,0-12.5-2.4-16.7-7.3
	c-4.2-4.8-6.5-10.9-6.9-18.3l15-2.2c0.3,4.5,1.3,7.9,3,10.3c1.7,2.4,3.8,3.6,6.4,3.6c2.8,0,5-0.7,6.7-2.2c1.6-1.5,2.4-3.6,2.4-6.3
	c0-4-1.2-7.4-3.7-10.2c-2.4-2.8-6.4-6.5-11.8-11.2c-5.4-4.6-9.6-9-12.3-13.1c-2.8-4.1-4.1-9.2-4.1-15.2c0-4.8,0.9-9,2.8-12.4
	c1.9-3.4,4.7-6.1,8.4-7.8c3.7-1.8,8-2.7,13.1-2.7c4.2,0,7.8,0.9,10.9,2.8c3.1,1.9,5.6,4.5,7.5,7.9C338.7,36.7,339.8,40.5,340.2,44.9
	z M363.3,116.2h-15.7V23.8h15.7V116.2z M422.2,54.6h-15.7v-7.1c0-3.8-0.7-6.5-2.1-8.4c-1.4-1.8-3.2-2.8-5.5-2.8
	c-3.1,0-5.3,0.8-6.5,2.4s-1.9,4.2-1.9,7.9v46.7c0,3.6,0.6,6.3,1.9,7.9s3.4,2.4,6.5,2.4c2.8,0,4.7-0.8,5.9-2.3c1.2-1.5,1.7-3.9,1.7-7
	V83.1h15.7v10.7c0,6.8-2,12.4-6,16.9c-4,4.5-9.8,6.7-17.3,6.7c-7.8,0-13.8-2.2-17.9-6.7c-4.1-4.5-6.2-10.1-6.2-17V46.3
	c0-6.9,2.1-12.6,6.2-17c4.1-4.5,10.1-6.7,17.9-6.7c7.5,0,13.3,2.4,17.3,7.2c4,4.8,6,10.8,6,18.1V54.6z"/>
</svg>
