<?xml version="1.0" encoding="utf-8"?>
<!-- Generator: Adobe Illustrator 27.5.0, SVG Export Plug-In . SVG Version: 6.00 Build 0)  -->
<svg version="1.1" baseProfile="tiny" id="Layer_1" xmlns="http://www.w3.org/2000/svg" xmlns:xlink="http://www.w3.org/1999/xlink"
	 x="0px" y="0px" width="444.9px" height="169.2px" viewBox="0 0 444.9 169.2" overflow="visible" xml:space="preserve">
<path fill="#FFE000" d="M62.5,83h-0.3L51.5,24.3h-13L28.2,83H28l-9.7-58.7H3.5L21,116.5h13.2l10.7-60.9h0.3l11.5,60.9h13.2
	l16.2-92.2H71.3L62.5,83z M126.7,68c7.6-3.1,11-11.4,11-19.3c0-15.7-7.5-24.4-24.5-24.4H89.8v92.2h25c18,0,24.7-11.5,24.7-26.7
	C139.4,77.9,134.7,71.5,126.7,68 M105.6,37.3h6c7,0,10.3,4.5,10.3,13c0,7.7-4.6,11.7-10.6,11.7h-5.7V37.3z M112.2,103.5h-6.6V75.1
	h5.1c9.4,0,13,4.7,13,14.2C123.6,98.6,120.6,103.5,112.2,103.5 M157.8,136.6h284.3V4.5H157.8V136.6z M168.7,125.7V15.4h262.5v110.3
	H168.7z M183.1,116.7V24.3h23.3c16.2,0,24.3,8.1,24.3,24.4c0,4.3-0.9,8.2-2.7,11.8c-1.8,3.5-4.5,6.1-8.2,7.5c4.1,1.8,7.3,4.4,9.4,8
	c2.2,3.5,3.2,8.2,3.2,14c0,8.2-2,14.7-5.9,19.5c-4,4.8-10.2,7.2-18.7,7.2H183.1z M198.8,37.4v24.8h5.7c3.1,0,5.6-1,7.6-3.1
	c2-2.1,2.9-5,2.9-8.7c0-8.7-3.4-13.1-10.3-13.1H198.8z M198.8,75.2v28.4h6.6c4.1,0,7-1.1,8.8-3.4c1.8-2.3,2.7-5.9,2.7-10.7
	c0-3.3-0.4-5.9-1.3-8c-0.9-2.1-2.2-3.6-4.1-4.7c-1.9-1-4.4-1.5-7.5-1.5H198.8z M252.5,96.2l-2.8,20.5h-15.2l16.8-92.4h19.5
	l16.9,92.4h-15.2l-2.8-20.5H252.5z M261,42.7l-6.3,39.7h12.7l-6.2-39.7H261z M336.2,45.4l-14.9,1.8c-0.3-3.6-1.2-6.3-2.8-7.9
	c-1.6-1.6-3.4-2.4-5.5-2.4c-2.6,0-4.5,0.8-5.8,2.3c-1.3,1.5-2,3.8-2,6.7c0,3.5,1,6.3,3.1,8.6c2.1,2.3,5.9,5.9,11.6,10.9
	s10,9.7,12.9,14c2.9,4.3,4.3,9.3,4.3,14.9c0,7.4-2.3,13.2-6.8,17.4c-4.5,4.2-10.6,6.3-18.1,6.3c-7,0-12.5-2.4-16.7-7.3
	c-4.2-4.8-6.5-10.9-6.9-18.3l15-2.2c0.3,4.5,1.3,7.9,3,10.3c1.7,2.4,3.8,3.6,6.4,3.6c2.8,0,5-0.7,6.7-2.2c1.6-1.5,2.4-3.6,2.4-6.3
	c0-4-1.2-7.4-3.7-10.2c-2.4-2.8-6.4-6.5-11.8-11.2c-5.4-4.6-9.6-9-12.3-13.1c-2.8-4.1-4.1-9.2-4.1-15.2c0-4.8,0.9-9,2.8-12.4
	c1.9-3.4,4.7-6.1,8.4-7.8c3.7-1.8,8-2.7,13.1-2.7c4.2,0,7.8,0.9,10.9,2.8c3.1,1.9,5.6,4.5,7.5,7.9C334.7,37.2,335.8,41,336.2,45.4z
	 M359.4,116.7h-15.7V24.3h15.7V116.7z M418.3,55.1h-15.7V48c0-3.8-0.7-6.5-2.1-8.4c-1.4-1.8-3.2-2.8-5.5-2.8c-3.1,0-5.3,0.8-6.5,2.4
	s-1.9,4.2-1.9,7.9v46.7c0,3.6,0.6,6.3,1.9,7.9s3.4,2.4,6.5,2.4c2.8,0,4.7-0.8,5.9-2.3c1.2-1.5,1.7-3.9,1.7-7V83.6h15.7v10.7
	c0,6.8-2,12.4-6,16.9c-4,4.5-9.8,6.7-17.3,6.7c-7.8,0-13.8-2.2-17.9-6.7c-4.1-4.5-6.2-10.1-6.2-17V46.8c0-6.9,2.1-12.6,6.2-17
	c4.1-4.5,10.1-6.7,17.9-6.7c7.5,0,13.3,2.4,17.3,7.2c4,4.8,6,10.8,6,18.1V55.1z M183.8,164.9h-2.2v-12.8h2.2V164.9z M188.1,164.9h-2
	v-12.8h2l2.6,7.3h0v-7.3h2v12.8h-1.9l-2.8-8h0V164.9z M196.2,164.9v-10.9h-2.1v-1.9h6.4v1.9h-2.1v10.9H196.2z M203.9,159.7v5.2h-2.2
	v-12.8h3c1.2,0,2.2,0.3,2.8,0.9s0.9,1.5,0.9,2.9c0,0.9-0.1,1.6-0.4,2.2c-0.3,0.5-0.6,0.9-1.1,1.1l1.8,5.8h-2.2l-1.5-5.3
	C204.7,159.7,204.4,159.7,203.9,159.7z M203.9,154v3.9h0.8c0.4,0,0.7-0.1,0.9-0.2s0.4-0.3,0.5-0.6c0.1-0.3,0.2-0.7,0.2-1.2
	c0-0.5-0.1-0.9-0.2-1.2c-0.1-0.3-0.3-0.5-0.5-0.6s-0.6-0.2-0.9-0.2H203.9z M210.5,161.8v-6.6c0-1,0.3-1.7,0.9-2.4
	c0.6-0.6,1.4-0.9,2.5-0.9c1.1,0,1.9,0.3,2.5,0.9s0.9,1.4,0.9,2.4v6.6c0,0.9-0.3,1.7-0.9,2.3s-1.4,0.9-2.5,0.9
	c-1.1,0-1.9-0.3-2.5-0.9C210.7,163.6,210.5,162.8,210.5,161.8z M212.6,155.3v6.5c0,0.5,0.1,0.9,0.3,1.1s0.5,0.3,0.9,0.3
	s0.7-0.1,0.9-0.3s0.3-0.6,0.3-1.1v-6.5c0-0.5-0.1-0.9-0.3-1.1c-0.2-0.2-0.5-0.3-0.9-0.3s-0.7,0.1-0.9,0.3
	C212.7,154.5,212.6,154.8,212.6,155.3z M224.4,164.9v-10.9h-2.1v-1.9h6.4v1.9h-2.1v10.9H224.4z M229.9,161.8v-6.6
	c0-1,0.3-1.7,0.9-2.4c0.6-0.6,1.4-0.9,2.5-0.9c1.1,0,1.9,0.3,2.5,0.9s0.9,1.4,0.9,2.4v6.6c0,0.9-0.3,1.7-0.9,2.3s-1.4,0.9-2.5,0.9
	c-1.1,0-1.9-0.3-2.5-0.9C230.2,163.6,229.9,162.8,229.9,161.8z M232.1,155.3v6.5c0,0.5,0.1,0.9,0.3,1.1s0.5,0.3,0.9,0.3
	s0.7-0.1,0.9-0.3s0.3-0.6,0.3-1.1v-6.5c0-0.5-0.1-0.9-0.3-1.1c-0.2-0.2-0.5-0.3-0.9-0.3s-0.7,0.1-0.9,0.3
	C232.2,154.5,232.1,154.8,232.1,155.3z M244.9,160.3l1.4-8.1h1.8l1.5,8.1h0l1.2-8.1h2l-2.2,12.8h-1.8l-1.6-8.4h0l-1.5,8.4h-1.8
	l-2.4-12.8h2L244.9,160.3L244.9,160.3z M255.2,162.1l-0.4,2.8h-2.1l2.3-12.8h2.7l2.3,12.8H258l-0.4-2.8H255.2z M256.4,154.7
	l-0.9,5.5h1.8L256.4,154.7L256.4,154.7z M262.6,164.9v-10.9h-2.1v-1.9h6.4v1.9h-2.1v10.9H262.6z M274.2,164.9h-6v-12.8h5.8v1.9h-3.6
	v3.3h2.8v1.9h-2.8v3.8h3.9V164.9z M278.1,159.7v5.2h-2.2v-12.8h3c1.2,0,2.2,0.3,2.8,0.9s0.9,1.5,0.9,2.9c0,0.9-0.1,1.6-0.4,2.2
	c-0.3,0.5-0.6,0.9-1.1,1.1l1.8,5.8h-2.2l-1.5-5.3C278.9,159.7,278.6,159.7,278.1,159.7z M278.1,154v3.9h0.8c0.4,0,0.7-0.1,0.9-0.2
	s0.4-0.3,0.5-0.6c0.1-0.3,0.2-0.7,0.2-1.2c0-0.5-0.1-0.9-0.2-1.2c-0.1-0.3-0.3-0.5-0.5-0.6s-0.6-0.2-0.9-0.2H278.1z M288.7,161h-4.3
	v-1.6h4.3V161z M290.5,164.9v-12.8h3.2c2.2,0,3.4,1.1,3.4,3.4c0,0.6-0.1,1.1-0.4,1.6c-0.3,0.5-0.6,0.8-1.1,1c0.6,0.2,1,0.6,1.3,1.1
	c0.3,0.5,0.4,1.1,0.4,1.9c0,1.1-0.3,2-0.8,2.7s-1.4,1-2.6,1H290.5z M292.7,154v3.4h0.8c0.4,0,0.8-0.1,1-0.4c0.3-0.3,0.4-0.7,0.4-1.2
	c0-1.2-0.5-1.8-1.4-1.8H292.7z M292.7,159.2v3.9h0.9c0.6,0,1-0.2,1.2-0.5c0.2-0.3,0.4-0.8,0.4-1.5c0-0.5-0.1-0.8-0.2-1.1
	s-0.3-0.5-0.6-0.6c-0.3-0.1-0.6-0.2-1-0.2H292.7z M300.9,162.1l-0.4,2.8h-2.1l2.3-12.8h2.7l2.3,12.8h-2.1l-0.4-2.8H300.9z
	 M302.1,154.7l-0.9,5.5h1.8L302.1,154.7L302.1,154.7z M313,155.1l-2.1,0.2c0-0.5-0.2-0.9-0.4-1.1c-0.2-0.2-0.5-0.3-0.8-0.3
	c-0.4,0-0.6,0.1-0.8,0.3c-0.2,0.2-0.3,0.5-0.3,0.9c0,0.5,0.1,0.9,0.4,1.2c0.3,0.3,0.8,0.8,1.6,1.5c0.8,0.7,1.4,1.3,1.8,1.9
	s0.6,1.3,0.6,2.1c0,1-0.3,1.8-0.9,2.4c-0.6,0.6-1.5,0.9-2.5,0.9c-1,0-1.7-0.3-2.3-1s-0.9-1.5-0.9-2.5l2.1-0.3c0,0.6,0.2,1.1,0.4,1.4
	c0.2,0.3,0.5,0.5,0.9,0.5c0.4,0,0.7-0.1,0.9-0.3s0.3-0.5,0.3-0.9c0-0.6-0.2-1-0.5-1.4c-0.3-0.4-0.9-0.9-1.6-1.5
	c-0.8-0.6-1.3-1.2-1.7-1.8c-0.4-0.6-0.6-1.3-0.6-2.1c0-0.7,0.1-1.2,0.4-1.7s0.6-0.8,1.2-1.1c0.5-0.2,1.1-0.4,1.8-0.4
	c0.6,0,1.1,0.1,1.5,0.4c0.4,0.3,0.8,0.6,1,1.1C312.8,153.9,313,154.5,313,155.1z M320.8,164.9h-6v-12.8h5.8v1.9H317v3.3h2.8v1.9H317
	v3.8h3.9V164.9z M328.8,160.3l1.4-8.1h1.8l1.5,8.1h0l1.2-8.1h2l-2.2,12.8h-1.8l-1.6-8.4h0l-1.5,8.4h-1.8l-2.4-12.8h2L328.8,160.3
	L328.8,160.3z M338.1,161.8v-6.6c0-1,0.3-1.7,0.9-2.4c0.6-0.6,1.4-0.9,2.5-0.9c1.1,0,1.9,0.3,2.5,0.9s0.9,1.4,0.9,2.4v6.6
	c0,0.9-0.3,1.7-0.9,2.3s-1.4,0.9-2.5,0.9c-1.1,0-1.9-0.3-2.5-0.9C338.4,163.6,338.1,162.8,338.1,161.8z M340.3,155.3v6.5
	c0,0.5,0.1,0.9,0.3,1.1s0.5,0.3,0.9,0.3s0.7-0.1,0.9-0.3s0.3-0.6,0.3-1.1v-6.5c0-0.5-0.1-0.9-0.3-1.1c-0.2-0.2-0.5-0.3-0.9-0.3
	s-0.7,0.1-0.9,0.3C340.4,154.5,340.3,154.8,340.3,155.3z M349,159.7v5.2h-2.2v-12.8h3c1.2,0,2.2,0.3,2.8,0.9s0.9,1.5,0.9,2.9
	c0,0.9-0.1,1.6-0.4,2.2c-0.3,0.5-0.6,0.9-1.1,1.1l1.8,5.8h-2.2l-1.5-5.3C349.9,159.7,349.5,159.7,349,159.7z M349,154v3.9h0.8
	c0.4,0,0.7-0.1,0.9-0.2s0.4-0.3,0.5-0.6c0.1-0.3,0.2-0.7,0.2-1.2c0-0.5-0.1-0.9-0.2-1.2c-0.1-0.3-0.3-0.5-0.5-0.6s-0.6-0.2-0.9-0.2
	H349z M357.7,164.9h-2.2v-12.8h2.2v4.7h0l2.3-4.7h2.2l-2.3,4.7l2.6,8h-2.2l-1.8-5.9h0l-0.8,1.4V164.9z M369.4,155.1l-2.1,0.2
	c0-0.5-0.2-0.9-0.4-1.1c-0.2-0.2-0.5-0.3-0.8-0.3c-0.4,0-0.6,0.1-0.8,0.3c-0.2,0.2-0.3,0.5-0.3,0.9c0,0.5,0.1,0.9,0.4,1.2
	c0.3,0.3,0.8,0.8,1.6,1.5c0.8,0.7,1.4,1.3,1.8,1.9s0.6,1.3,0.6,2.1c0,1-0.3,1.8-0.9,2.4c-0.6,0.6-1.5,0.9-2.5,0.9
	c-1,0-1.7-0.3-2.3-1s-0.9-1.5-0.9-2.5l2.1-0.3c0,0.6,0.2,1.1,0.4,1.4c0.2,0.3,0.5,0.5,0.9,0.5c0.4,0,0.7-0.1,0.9-0.3
	s0.3-0.5,0.3-0.9c0-0.6-0.2-1-0.5-1.4c-0.3-0.4-0.9-0.9-1.6-1.5c-0.8-0.6-1.3-1.2-1.7-1.8c-0.4-0.6-0.6-1.3-0.6-2.1
	c0-0.7,0.1-1.2,0.4-1.7s0.6-0.8,1.2-1.1c0.5-0.2,1.1-0.4,1.8-0.4c0.6,0,1.1,0.1,1.5,0.4c0.4,0.3,0.8,0.6,1,1.1
	C369.2,153.9,369.3,154.5,369.4,155.1z M373.3,164.9h-2.2v-12.8h2.2v5.2h2.3v-5.2h2.2v12.8h-2.2v-5.7h-2.3V164.9z M379.9,161.8v-6.6
	c0-1,0.3-1.7,0.9-2.4c0.6-0.6,1.4-0.9,2.5-0.9c1.1,0,1.9,0.3,2.5,0.9s0.9,1.4,0.9,2.4v6.6c0,0.9-0.3,1.7-0.9,2.3s-1.4,0.9-2.5,0.9
	c-1.1,0-1.9-0.3-2.5-0.9C380.2,163.6,379.9,162.8,379.9,161.8z M382.1,155.3v6.5c0,0.5,0.1,0.9,0.3,1.1s0.5,0.3,0.9,0.3
	s0.7-0.1,0.9-0.3s0.3-0.6,0.3-1.1v-6.5c0-0.5-0.1-0.9-0.3-1.1c-0.2-0.2-0.5-0.3-0.9-0.3s-0.7,0.1-0.9,0.3
	C382.2,154.5,382.1,154.8,382.1,155.3z M390.8,164.9h-2.2v-12.8h3.1c1.4,0,2.4,0.3,3,0.9c0.6,0.6,0.9,1.5,0.9,2.9
	c0,0.9-0.1,1.6-0.4,2.2c-0.3,0.6-0.7,1-1.3,1.2c-0.6,0.3-1.3,0.4-2.2,0.4h-0.9V164.9z M390.8,154v3.9h0.8c0.5,0,0.9-0.1,1.1-0.2
	c0.3-0.1,0.5-0.3,0.6-0.6c0.1-0.3,0.2-0.7,0.2-1.2c0-0.8-0.1-1.3-0.4-1.5c-0.3-0.3-0.8-0.4-1.5-0.4H390.8z M403.2,152.2v2.1
	l-1.2,2.2h-0.9l0.9-2.2h-0.8v-2.1H403.2z M410.9,164.9h-6v-1.7c1-1.5,1.7-2.5,2.1-3.1c0.4-0.6,0.8-1.2,1.1-1.8s0.6-1.1,0.7-1.7
	c0.2-0.5,0.3-1,0.3-1.5c0-0.5-0.1-0.9-0.3-1.1s-0.4-0.3-0.7-0.3c-0.3,0-0.6,0.1-0.8,0.4c-0.2,0.2-0.3,0.6-0.3,1v0.9H405v-0.6
	c0-0.6,0.1-1.2,0.4-1.7s0.6-0.9,1.1-1.2c0.5-0.3,1.1-0.4,1.7-0.4c0.4,0,0.8,0.1,1.2,0.2c0.4,0.2,0.7,0.4,0.9,0.6s0.5,0.6,0.6,0.9
	c0.1,0.3,0.2,0.7,0.2,1.1c0,0.6-0.1,1.1-0.2,1.5c-0.1,0.5-0.3,1-0.6,1.6c-0.3,0.6-0.7,1.3-1.2,2.1c-0.5,0.8-1.2,1.8-2.1,3h3.8V164.9
	z M412.7,161.2h2v0.9c0,0.9,0.3,1.3,1,1.3c0.7,0,1-0.5,1-1.5v-1c0-0.4-0.1-0.8-0.2-1.1c-0.1-0.3-0.3-0.5-0.6-0.6
	c-0.3-0.1-0.6-0.2-1.1-0.2v-1.7c0.4,0,0.8-0.1,1-0.2c0.3-0.1,0.4-0.3,0.6-0.6c0.1-0.3,0.2-0.7,0.2-1.2c0-0.6-0.1-1-0.2-1.3
	s-0.4-0.4-0.7-0.4c-0.3,0-0.6,0.1-0.7,0.3c-0.2,0.2-0.2,0.5-0.2,1v0.5h-2V155c0-0.9,0.3-1.6,0.8-2.1c0.5-0.5,1.2-0.8,2.2-0.8
	c0.6,0,1.1,0.2,1.5,0.5s0.7,0.7,1,1.2s0.3,1,0.3,1.6c0,0.8-0.1,1.4-0.3,1.8c-0.2,0.4-0.5,0.8-1.1,1.1c0.4,0.2,0.8,0.5,1,0.7
	c0.2,0.3,0.4,0.6,0.5,1c0.1,0.4,0.1,0.9,0.1,1.5c0,1.3-0.3,2.2-0.8,2.8s-1.3,0.9-2.4,0.9c-1.9,0-2.9-1-2.9-3.1V161.2z"/>
</svg>
