<?xml version="1.0" encoding="utf-8"?>
<!-- Generator: Adobe Illustrator 27.5.0, SVG Export Plug-In . SVG Version: 6.00 Build 0)  -->
<svg version="1.1" baseProfile="tiny" id="Layer_1" xmlns="http://www.w3.org/2000/svg" xmlns:xlink="http://www.w3.org/1999/xlink"
	 x="0px" y="0px" width="439.2px" height="140px" viewBox="0 0 439.2 140" overflow="visible" xml:space="preserve">
<path fill="#FFE000" d="M65.2,82.5H65L54.3,23.8h-13L31,82.5h-0.3L21,23.8H6.2L23.7,116h13.2l10.7-60.9h0.3L59.4,116h13.2l16.2-92.2
	H74L65.2,82.5z M129.4,67.5c7.6-3.1,11-11.4,11-19.3c0-15.7-7.5-24.4-24.5-24.4H92.5V116h25c18,0,24.7-11.5,24.7-26.7
	C142.2,77.4,137.5,71,129.4,67.5 M108.3,36.8h6c7,0,10.3,4.5,10.3,13c0,7.7-4.6,11.7-10.6,11.7h-5.7V36.8z M114.9,103h-6.6V74.6h5.1
	c9.4,0,13,4.7,13,14.2C126.4,98.1,123.3,103,114.9,103 M160.6,136.1h273.2V4H160.6V136.1z M171.4,125.2V14.9h251.5v110.3H171.4z
	 M232.1,54.6h-15.7v-7.1c0-3.8-0.7-6.5-2.1-8.4c-1.4-1.8-3.2-2.8-5.5-2.8c-3.1,0-5.3,0.8-6.5,2.4s-1.9,4.2-1.9,7.9v46.7
	c0,3.6,0.6,6.3,1.9,7.9s3.4,2.4,6.5,2.4c2.8,0,4.7-0.8,5.9-2.3c1.2-1.5,1.7-3.9,1.7-7V83.1h15.7v10.7c0,6.8-2,12.4-6,16.9
	c-4,4.5-9.8,6.7-17.3,6.7c-7.8,0-13.8-2.2-17.9-6.7c-4.1-4.5-6.2-10.1-6.2-17V46.3c0-6.9,2.1-12.6,6.2-17c4.1-4.5,10.1-6.7,17.9-6.7
	c7.5,0,13.3,2.4,17.3,7.2c4,4.8,6,10.8,6,18.1V54.6z M253.2,95.7l-2.8,20.5h-15.2l16.8-92.4h19.5l16.9,92.4h-15.2l-2.8-20.5H253.2z
	 M262.6,42.2l-6.3,39.7h12.7l-6.2-39.7H262.6z M335,23.8h20.7v92.4h-13.7V44h-0.3l-14.2,72.2h-7.6L305.7,44h-0.2v72.2h-13.7V23.8
	h20.6l11.2,54h0.2L335,23.8z M379.9,116.2h-15.7V23.8h22.5c9.9,0,17.1,2.1,21.6,6.3c4.5,4.2,6.8,11.2,6.8,20.9c0,6.5-1,11.8-3,15.8
	c-2,4-5.1,6.9-9.3,8.8c-4.2,1.8-9.6,2.7-16,2.7h-6.8V116.2z M379.9,36.9v28.4h6.1c3.5,0,6.2-0.4,8.1-1.3c1.9-0.8,3.3-2.3,4.1-4.4
	c0.8-2.1,1.2-4.9,1.2-8.6c0-5.4-1-9.2-2.9-11.2c-1.9-2-5.4-3-10.6-3H379.9z"/>
</svg>
