<?xml version="1.0" encoding="utf-8"?>
<!-- Generator: Adobe Illustrator 27.5.0, SVG Export Plug-In . SVG Version: 6.00 Build 0)  -->
<svg version="1.1" baseProfile="tiny" id="Layer_1" xmlns="http://www.w3.org/2000/svg" xmlns:xlink="http://www.w3.org/1999/xlink"
	 x="0px" y="0px" width="444.9px" height="169.2px" viewBox="0 0 444.9 169.2" overflow="visible" xml:space="preserve">
<path fill="#FFE000" d="M67.7,83.1h-0.3L56.7,24.4h-13L33.4,83.1h-0.3l-9.7-58.7H8.7l17.5,92.2h13.2l10.7-60.9h0.3l11.5,60.9h13.2
	l16.2-92.2H76.5L67.7,83.1z M131.9,68.1c7.6-3.1,11-11.4,11-19.3c0-15.7-7.5-24.4-24.5-24.4H94.9v92.2h25c18,0,24.7-11.5,24.7-26.7
	C144.6,78,139.9,71.7,131.9,68.1 M110.7,37.5h6c7,0,10.3,4.5,10.3,13c0,7.7-4.6,11.7-10.6,11.7h-5.7V37.5z M117.4,103.6h-6.6V75.2
	h5.1c9.4,0,13,4.7,13,14.2C128.8,98.7,125.8,103.6,117.4,103.6 M163,136.7h273.2V4.6H163V136.7z M173.8,125.8V15.5h251.5v110.3
	H173.8z M234.5,55.2h-15.7v-7.1c0-3.8-0.7-6.5-2.1-8.4c-1.4-1.8-3.2-2.8-5.5-2.8c-3.1,0-5.3,0.8-6.5,2.4s-1.9,4.2-1.9,7.9V94
	c0,3.6,0.6,6.3,1.9,7.9s3.4,2.4,6.5,2.4c2.8,0,4.7-0.8,5.9-2.3c1.2-1.5,1.7-3.9,1.7-7V83.7h15.7v10.7c0,6.8-2,12.4-6,16.9
	c-4,4.5-9.8,6.7-17.3,6.7c-7.8,0-13.8-2.2-17.9-6.7c-4.1-4.5-6.2-10.1-6.2-17V46.9c0-6.9,2.1-12.6,6.2-17c4.1-4.5,10.1-6.7,17.9-6.7
	c7.5,0,13.3,2.4,17.3,7.2c4,4.8,6,10.8,6,18.1V55.2z M255.6,96.3l-2.8,20.5h-15.2l16.8-92.4H274l16.9,92.4h-15.2l-2.8-20.5H255.6z
	 M265.1,42.8l-6.3,39.7h12.7l-6.2-39.7H265.1z M307.9,89.6v27.3h-13.7V24.4h20.6l11.2,54h0.2l11.1-54h20.7v92.4h-13.7V44.6h-0.3
	l-14.2,72.2h-7.6l-14.2-72.2h-0.2V89.6 M382.4,116.8h-15.7V24.4h22.5c9.9,0,17.1,2.1,21.6,6.3c4.5,4.2,6.8,11.2,6.8,20.9
	c0,6.5-1,11.8-3,15.8c-2,4-5.1,6.9-9.3,8.8c-4.2,1.8-9.6,2.7-16,2.7h-6.8V116.8z M382.4,37.5v28.4h6.1c3.5,0,6.2-0.4,8.1-1.3
	c1.9-0.8,3.3-2.3,4.1-4.4c0.8-2.1,1.2-4.9,1.2-8.6c0-5.4-1-9.2-2.9-11.2c-1.9-2-5.4-3-10.6-3H382.4z M178.4,162.2L178,165h-2.1
	l2.3-12.8h2.7l2.3,12.8h-2.1l-0.4-2.8H178.4z M179.6,154.8l-0.9,5.5h1.8L179.6,154.8L179.6,154.8z M184.5,165v-12.8h3.2
	c0.7,0,1.4,0.1,1.9,0.4c0.5,0.3,0.9,0.7,1.2,1.3c0.3,0.6,0.4,1.3,0.4,2.2v5.1c0,0.6-0.1,1.2-0.2,1.7c-0.1,0.5-0.4,0.9-0.7,1.2
	s-0.6,0.5-1.1,0.7c-0.4,0.2-0.9,0.2-1.5,0.2H184.5z M186.7,154.1v9.2h0.8c0.6,0,1-0.1,1.2-0.4c0.2-0.3,0.3-0.7,0.3-1.4v-5.6
	c0-0.5,0-0.8-0.1-1.1c-0.1-0.3-0.3-0.4-0.5-0.6c-0.2-0.1-0.5-0.2-0.9-0.2H186.7z M196.1,161.1l1.6-8.9h2.1l-2.6,12.8H195l-2.6-12.8
	h2.1L196.1,161.1L196.1,161.1z M202.7,162.2l-0.4,2.8h-2.1l2.3-12.8h2.7l2.3,12.8h-2.1l-0.4-2.8H202.7z M203.9,154.8l-0.9,5.5h1.8
	L203.9,154.8L203.9,154.8z M210.8,165h-2v-12.8h2l2.6,7.3h0v-7.3h2V165h-1.9l-2.8-8h0V165z M224.1,156.5h-2.2v-1
	c0-0.5-0.1-0.9-0.3-1.2c-0.2-0.3-0.4-0.4-0.8-0.4c-0.4,0-0.7,0.1-0.9,0.3c-0.2,0.2-0.3,0.6-0.3,1.1v6.5c0,0.5,0.1,0.9,0.3,1.1
	s0.5,0.3,0.9,0.3c0.4,0,0.7-0.1,0.8-0.3c0.2-0.2,0.2-0.5,0.2-1v-1.5h2.2v1.5c0,0.9-0.3,1.7-0.8,2.3c-0.6,0.6-1.4,0.9-2.4,0.9
	c-1.1,0-1.9-0.3-2.5-0.9s-0.9-1.4-0.9-2.3v-6.6c0-1,0.3-1.7,0.9-2.4s1.4-0.9,2.5-0.9c1,0,1.8,0.3,2.4,1c0.6,0.7,0.8,1.5,0.8,2.5
	V156.5z M232.4,165h-6v-12.8h5.8v1.9h-3.6v3.3h2.8v1.9h-2.8v3.8h3.9V165z M234.1,165v-12.8h3.2c0.7,0,1.4,0.1,1.9,0.4
	c0.5,0.3,0.9,0.7,1.2,1.3c0.3,0.6,0.4,1.3,0.4,2.2v5.1c0,0.6-0.1,1.2-0.2,1.7s-0.4,0.9-0.7,1.2c-0.3,0.3-0.6,0.5-1.1,0.7
	c-0.4,0.2-0.9,0.2-1.5,0.2H234.1z M236.3,154.1v9.2h0.8c0.6,0,1-0.1,1.2-0.4c0.2-0.3,0.3-0.7,0.3-1.4v-5.6c0-0.5-0.1-0.8-0.1-1.1
	s-0.3-0.4-0.5-0.6c-0.2-0.1-0.5-0.2-0.9-0.2H236.3z M249.1,160.4l1.4-8.1h1.8l1.5,8.1h0l1.2-8.1h2l-2.2,12.8H253l-1.6-8.4h0
	l-1.5,8.4h-1.8l-2.4-12.8h2L249.1,160.4L249.1,160.4z M259.4,162.2L259,165h-2.1l2.3-12.8h2.7l2.3,12.8h-2.1l-0.4-2.8H259.4z
	 M260.6,154.8l-0.9,5.5h1.8L260.6,154.8L260.6,154.8z M266.8,165v-10.9h-2.1v-1.9h6.4v1.9h-2.1V165H266.8z M278.4,165h-6v-12.8h5.8
	v1.9h-3.6v3.3h2.8v1.9h-2.8v3.8h3.9V165z M282.3,159.8v5.2h-2.2v-12.8h3c1.2,0,2.2,0.3,2.8,0.9s0.9,1.5,0.9,2.9
	c0,0.9-0.1,1.6-0.4,2.2c-0.3,0.5-0.6,0.9-1.1,1.1l1.8,5.8h-2.2l-1.5-5.3C283.1,159.8,282.7,159.8,282.3,159.8z M282.3,154.1v3.9h0.8
	c0.4,0,0.7-0.1,0.9-0.2s0.4-0.3,0.5-0.6c0.1-0.3,0.2-0.7,0.2-1.2c0-0.5-0.1-0.9-0.2-1.2c-0.1-0.3-0.3-0.5-0.5-0.6s-0.6-0.2-0.9-0.2
	H282.3z M292.9,161.1h-4.3v-1.6h4.3V161.1z M294.7,165v-12.8h3.2c2.2,0,3.4,1.1,3.4,3.4c0,0.6-0.1,1.1-0.4,1.6
	c-0.3,0.5-0.6,0.8-1.1,1c0.6,0.2,1,0.6,1.3,1.1c0.3,0.5,0.4,1.1,0.4,1.9c0,1.1-0.3,2-0.8,2.7s-1.4,1-2.6,1H294.7z M296.8,154.1v3.4
	h0.8c0.4,0,0.8-0.1,1-0.4c0.3-0.3,0.4-0.7,0.4-1.2c0-1.2-0.5-1.8-1.4-1.8H296.8z M296.8,159.3v3.9h0.9c0.6,0,1-0.2,1.2-0.5
	c0.2-0.3,0.4-0.8,0.4-1.5c0-0.5-0.1-0.8-0.2-1.1s-0.3-0.5-0.6-0.6c-0.3-0.1-0.6-0.2-1-0.2H296.8z M305.1,162.2l-0.4,2.8h-2.1
	l2.3-12.8h2.7l2.3,12.8h-2.1l-0.4-2.8H305.1z M306.2,154.8l-0.9,5.5h1.8L306.2,154.8L306.2,154.8z M317.2,155.2l-2.1,0.2
	c0-0.5-0.2-0.9-0.4-1.1c-0.2-0.2-0.5-0.3-0.8-0.3c-0.4,0-0.6,0.1-0.8,0.3c-0.2,0.2-0.3,0.5-0.3,0.9c0,0.5,0.1,0.9,0.4,1.2
	c0.3,0.3,0.8,0.8,1.6,1.5c0.8,0.7,1.4,1.3,1.8,1.9s0.6,1.3,0.6,2.1c0,1-0.3,1.8-0.9,2.4c-0.6,0.6-1.5,0.9-2.5,0.9
	c-1,0-1.7-0.3-2.3-1s-0.9-1.5-0.9-2.5l2.1-0.3c0,0.6,0.2,1.1,0.4,1.4c0.2,0.3,0.5,0.5,0.9,0.5c0.4,0,0.7-0.1,0.9-0.3
	s0.3-0.5,0.3-0.9c0-0.6-0.2-1-0.5-1.4c-0.3-0.4-0.9-0.9-1.6-1.5c-0.8-0.6-1.3-1.2-1.7-1.8c-0.4-0.6-0.6-1.3-0.6-2.1
	c0-0.7,0.1-1.2,0.4-1.7s0.6-0.8,1.2-1.1c0.5-0.2,1.1-0.4,1.8-0.4c0.6,0,1.1,0.1,1.5,0.4c0.4,0.3,0.8,0.6,1,1.1
	C317,154.1,317.1,154.6,317.2,155.2z M325,165h-6v-12.8h5.8v1.9h-3.6v3.3h2.8v1.9h-2.8v3.8h3.9V165z M333,160.4l1.4-8.1h1.8l1.5,8.1
	h0l1.2-8.1h2l-2.2,12.8h-1.8l-1.6-8.4h0l-1.5,8.4H332l-2.4-12.8h2L333,160.4L333,160.4z M342.3,162v-6.6c0-1,0.3-1.7,0.9-2.4
	c0.6-0.6,1.4-0.9,2.5-0.9c1.1,0,1.9,0.3,2.5,0.9s0.9,1.4,0.9,2.4v6.6c0,0.9-0.3,1.7-0.9,2.3s-1.4,0.9-2.5,0.9
	c-1.1,0-1.9-0.3-2.5-0.9C342.6,163.7,342.3,162.9,342.3,162z M344.5,155.4v6.5c0,0.5,0.1,0.9,0.3,1.1s0.5,0.3,0.9,0.3
	s0.7-0.1,0.9-0.3s0.3-0.6,0.3-1.1v-6.5c0-0.5-0.1-0.9-0.3-1.1c-0.2-0.2-0.5-0.3-0.9-0.3s-0.7,0.1-0.9,0.3
	C344.5,154.6,344.5,154.9,344.5,155.4z M353.2,159.8v5.2H351v-12.8h3c1.2,0,2.2,0.3,2.8,0.9s0.9,1.5,0.9,2.9c0,0.9-0.1,1.6-0.4,2.2
	c-0.3,0.5-0.6,0.9-1.1,1.1l1.8,5.8h-2.2l-1.5-5.3C354,159.8,353.7,159.8,353.2,159.8z M353.2,154.1v3.9h0.8c0.4,0,0.7-0.1,0.9-0.2
	s0.4-0.3,0.5-0.6c0.1-0.3,0.2-0.7,0.2-1.2c0-0.5-0.1-0.9-0.2-1.2c-0.1-0.3-0.3-0.5-0.5-0.6s-0.6-0.2-0.9-0.2H353.2z M361.9,165h-2.2
	v-12.8h2.2v4.7h0l2.3-4.7h2.2L364,157l2.6,8h-2.2l-1.8-5.9h0l-0.8,1.4V165z M373.6,155.2l-2.1,0.2c0-0.5-0.2-0.9-0.4-1.1
	c-0.2-0.2-0.5-0.3-0.8-0.3c-0.4,0-0.6,0.1-0.8,0.3c-0.2,0.2-0.3,0.5-0.3,0.9c0,0.5,0.1,0.9,0.4,1.2c0.3,0.3,0.8,0.8,1.6,1.5
	c0.8,0.7,1.4,1.3,1.8,1.9s0.6,1.3,0.6,2.1c0,1-0.3,1.8-0.9,2.4c-0.6,0.6-1.5,0.9-2.5,0.9c-1,0-1.7-0.3-2.3-1s-0.9-1.5-0.9-2.5
	l2.1-0.3c0,0.6,0.2,1.1,0.4,1.4c0.2,0.3,0.5,0.5,0.9,0.5c0.4,0,0.7-0.1,0.9-0.3s0.3-0.5,0.3-0.9c0-0.6-0.2-1-0.5-1.4
	c-0.3-0.4-0.9-0.9-1.6-1.5c-0.8-0.6-1.3-1.2-1.7-1.8c-0.4-0.6-0.6-1.3-0.6-2.1c0-0.7,0.1-1.2,0.4-1.7s0.6-0.8,1.2-1.1
	c0.5-0.2,1.1-0.4,1.8-0.4c0.6,0,1.1,0.1,1.5,0.4c0.4,0.3,0.8,0.6,1,1.1C373.4,154.1,373.5,154.6,373.6,155.2z M377.5,165h-2.2v-12.8
	h2.2v5.2h2.3v-5.2h2.2V165h-2.2v-5.7h-2.3V165z M384.1,162v-6.6c0-1,0.3-1.7,0.9-2.4c0.6-0.6,1.4-0.9,2.5-0.9c1.1,0,1.9,0.3,2.5,0.9
	s0.9,1.4,0.9,2.4v6.6c0,0.9-0.3,1.7-0.9,2.3s-1.4,0.9-2.5,0.9c-1.1,0-1.9-0.3-2.5-0.9C384.4,163.7,384.1,162.9,384.1,162z
	 M386.2,155.4v6.5c0,0.5,0.1,0.9,0.3,1.1s0.5,0.3,0.9,0.3s0.7-0.1,0.9-0.3s0.3-0.6,0.3-1.1v-6.5c0-0.5-0.1-0.9-0.3-1.1
	c-0.2-0.2-0.5-0.3-0.9-0.3s-0.7,0.1-0.9,0.3C386.3,154.6,386.2,154.9,386.2,155.4z M395,165h-2.2v-12.8h3.1c1.4,0,2.4,0.3,3,0.9
	c0.6,0.6,0.9,1.5,0.9,2.9c0,0.9-0.1,1.6-0.4,2.2c-0.3,0.6-0.7,1-1.3,1.2c-0.6,0.3-1.3,0.4-2.2,0.4H395V165z M395,154.1v3.9h0.8
	c0.5,0,0.9-0.1,1.1-0.2c0.3-0.1,0.5-0.3,0.6-0.6c0.1-0.3,0.2-0.7,0.2-1.2c0-0.8-0.1-1.3-0.4-1.5c-0.3-0.3-0.8-0.4-1.5-0.4H395z
	 M407.4,152.3v2.1l-1.2,2.2h-0.9l0.9-2.2h-0.8v-2.1H407.4z M415.1,165h-6v-1.7c1-1.5,1.7-2.5,2.1-3.1c0.4-0.6,0.8-1.2,1.1-1.8
	s0.6-1.1,0.7-1.7c0.2-0.5,0.3-1,0.3-1.5c0-0.5-0.1-0.9-0.3-1.1s-0.4-0.3-0.7-0.3c-0.3,0-0.6,0.1-0.8,0.4c-0.2,0.2-0.3,0.6-0.3,1v0.9
	h-2.1v-0.6c0-0.6,0.1-1.2,0.4-1.7s0.6-0.9,1.1-1.2c0.5-0.3,1.1-0.4,1.7-0.4c0.4,0,0.8,0.1,1.2,0.2c0.4,0.2,0.7,0.4,0.9,0.6
	s0.5,0.6,0.6,0.9c0.1,0.3,0.2,0.7,0.2,1.1c0,0.6-0.1,1.1-0.2,1.5c-0.1,0.5-0.3,1-0.6,1.6c-0.3,0.6-0.7,1.3-1.2,2.1
	c-0.5,0.8-1.2,1.8-2.1,3h3.8V165z M416.9,161.4h2v0.9c0,0.9,0.3,1.3,1,1.3c0.7,0,1-0.5,1-1.5v-1c0-0.4-0.1-0.8-0.2-1.1
	c-0.1-0.3-0.3-0.5-0.6-0.6c-0.3-0.1-0.6-0.2-1.1-0.2v-1.7c0.4,0,0.8-0.1,1-0.2c0.3-0.1,0.4-0.3,0.6-0.6c0.1-0.3,0.2-0.7,0.2-1.2
	c0-0.6-0.1-1-0.2-1.3s-0.4-0.4-0.7-0.4c-0.3,0-0.6,0.1-0.7,0.3c-0.2,0.2-0.2,0.5-0.2,1v0.5h-2v-0.6c0-0.9,0.3-1.6,0.8-2.1
	c0.5-0.5,1.2-0.8,2.2-0.8c0.6,0,1.1,0.2,1.5,0.5s0.7,0.7,1,1.2s0.3,1,0.3,1.6c0,0.8-0.1,1.4-0.3,1.8c-0.2,0.4-0.5,0.8-1.1,1.1
	c0.4,0.2,0.8,0.5,1,0.7c0.2,0.3,0.4,0.6,0.5,1c0.1,0.4,0.1,0.9,0.1,1.5c0,1.3-0.3,2.2-0.8,2.8s-1.3,0.9-2.4,0.9
	c-1.9,0-2.9-1-2.9-3.1V161.4z"/>
</svg>
