<?xml version="1.0" encoding="utf-8"?>
<!-- Generator: Adobe Illustrator 27.5.0, SVG Export Plug-In . SVG Version: 6.00 Build 0)  -->
<svg version="1.1" baseProfile="tiny" id="Layer_1" xmlns="http://www.w3.org/2000/svg" xmlns:xlink="http://www.w3.org/1999/xlink"
	 x="0px" y="0px" width="441px" height="140px" viewBox="0 0 441 140" overflow="visible" xml:space="preserve">
<path fill="#FFE000" d="M65,82.5h-0.3L54,23.8H41L30.7,82.5h-0.3l-9.7-58.7H6L23.5,116h13.2l10.7-60.9h0.3L59.1,116h13.2l16.2-92.2
	H73.8L65,82.5z M129.2,67.5c7.6-3.1,11-11.4,11-19.3c0-15.7-7.5-24.4-24.5-24.4H92.2V116h25c18,0,24.7-11.5,24.7-26.7
	C141.9,77.4,137.2,71,129.2,67.5 M108,36.8h6c7,0,10.3,4.5,10.3,13c0,7.7-4.6,11.7-10.6,11.7H108V36.8z M114.7,103H108V74.6h5.1
	c9.4,0,13,4.7,13,14.2C126.1,98.1,123.1,103,114.7,103 M160.3,136.1h275.4V4H160.3V136.1z M171.2,125.2V14.9h253.7v110.3H171.2z
	 M205.2,82.6l10.3-58.8h12.9l10.6,58.8h0.2l8.8-58.8h14.7l-16.1,92.4h-13.2l-11.4-61.1h-0.2l-10.6,61.1H198l-17.4-92.4h14.7
	l9.6,58.8H205.2z M310.8,116.2H267V23.8H309v13.8h-26.4v23.8H303v13.8h-20.3v27.2h28.1V116.2z M361.2,116.2h-43.8V23.8h42.1v13.8
	h-26.4v23.8h20.3v13.8h-20.3v27.2h28.1V116.2z M382.8,116.2h-15.7V23.8h15.7v34.1h0.2l16.5-34.1h15.7l-17,34.3l19.2,58h-16
	l-12.8-42.9h-0.2l-5.6,10.1V116.2z"/>
</svg>
