<?xml version="1.0" encoding="utf-8"?>
<!-- Generator: Adobe Illustrator 27.5.0, SVG Export Plug-In . SVG Version: 6.00 Build 0)  -->
<svg version="1.1" baseProfile="tiny" id="Layer_1" xmlns="http://www.w3.org/2000/svg" xmlns:xlink="http://www.w3.org/1999/xlink"
	 x="0px" y="0px" width="444.9px" height="169.2px" viewBox="0 0 444.9 169.2" overflow="visible" xml:space="preserve">
<path fill="#ffe539" d="M66.1,82.8h-0.3L55.2,24.1h-13L31.9,82.8h-0.3l-9.7-58.7H7.1l17.5,92.2h13.2l10.7-60.9h0.3l11.5,60.9h13.2
	l16.2-92.2H74.9L66.1,82.8z M130.3,67.8c7.6-3.1,11-11.4,11-19.3c0-15.7-7.5-24.4-24.5-24.4H93.4v92.2h25c18,0,24.7-11.5,24.7-26.7
	C143.1,77.7,138.4,71.3,130.3,67.8 M109.2,37.1h6c7,0,10.3,4.5,10.3,13c0,7.7-4.6,11.7-10.6,11.7h-5.7V37.1z M115.8,103.2h-6.6V74.9
	h5.1c9.4,0,13,4.7,13,14.2C127.3,98.4,124.2,103.2,115.8,103.2 M161.5,136.4h275.4V4.3H161.5V136.4z M172.3,125.5V15.2H426v110.3
	H172.3z M206.4,82.9l10.3-58.8h12.9l10.6,58.8h0.2l8.8-58.8h14.7l-16.1,92.4h-13.2l-11.4-61.1H223l-10.6,61.1h-13.2l-17.4-92.4h14.7
	l9.6,58.8H206.4z M311.9,116.5h-43.8V24.1h42.1v13.8h-26.4v23.8h20.3v13.8h-20.3v27.2h28.1V116.5z M362.3,116.5h-43.8V24.1h42.1
	v13.8h-26.4v23.8h20.3v13.8h-20.3v27.2h28.1V116.5z M383.9,116.5h-15.7V24.1h15.7v34.1h0.2l16.5-34.1h15.7l-17,34.3l19.2,58h-16
	l-12.8-42.9h-0.2l-5.6,10.1V116.5z M210.4,160.1l1.4-8.1h1.8l1.5,8.1h0l1.2-8.1h2l-2.2,12.8h-1.8l-1.6-8.4h0l-1.5,8.4h-1.8
	l-2.4-12.8h2L210.4,160.1L210.4,160.1z M220.8,161.9l-0.4,2.8h-2.1l2.3-12.8h2.7l2.3,12.8h-2.1l-0.4-2.8H220.8z M221.9,154.5
	l-0.9,5.5h1.8L221.9,154.5L221.9,154.5z M228.1,164.7v-10.9h-2.1V152h6.4v1.9h-2.1v10.9H228.1z M239.8,164.7h-6V152h5.8v1.9h-3.6
	v3.3h2.8v1.9h-2.8v3.8h3.9V164.7z M243.6,159.5v5.2h-2.2V152h3c1.2,0,2.2,0.3,2.8,0.9c0.6,0.6,0.9,1.5,0.9,2.9
	c0,0.9-0.1,1.6-0.4,2.2c-0.3,0.5-0.6,0.9-1.1,1.1l1.8,5.8h-2.2l-1.5-5.3C244.5,159.5,244.1,159.5,243.6,159.5z M243.6,153.8v3.9h0.8
	c0.4,0,0.7-0.1,0.9-0.2s0.4-0.3,0.5-0.6s0.2-0.7,0.2-1.2c0-0.5-0.1-0.9-0.2-1.2s-0.3-0.5-0.5-0.6s-0.6-0.2-0.9-0.2H243.6z
	 M254.2,160.8h-4.3v-1.6h4.3V160.8z M256,164.7V152h3.2c2.2,0,3.4,1.1,3.4,3.4c0,0.6-0.1,1.1-0.4,1.6c-0.3,0.5-0.6,0.8-1.1,1
	c0.6,0.2,1,0.6,1.3,1.1c0.3,0.5,0.4,1.1,0.4,1.9c0,1.1-0.3,2-0.8,2.7c-0.5,0.7-1.4,1-2.6,1H256z M258.2,153.8v3.4h0.8
	c0.4,0,0.8-0.1,1-0.4c0.3-0.3,0.4-0.7,0.4-1.2c0-1.2-0.5-1.8-1.4-1.8H258.2z M258.2,159v3.9h0.9c0.6,0,1-0.2,1.2-0.5
	c0.2-0.3,0.4-0.8,0.4-1.5c0-0.4-0.1-0.8-0.2-1.1s-0.3-0.5-0.6-0.6c-0.3-0.1-0.6-0.2-1-0.2H258.2z M266.4,161.9l-0.4,2.8H264
	l2.3-12.8h2.7l2.3,12.8h-2.1l-0.4-2.8H266.4z M267.6,154.5l-0.9,5.5h1.8L267.6,154.5L267.6,154.5z M278.6,154.9l-2.1,0.2
	c0-0.5-0.2-0.9-0.4-1.1c-0.2-0.2-0.5-0.3-0.8-0.3c-0.4,0-0.6,0.1-0.8,0.3c-0.2,0.2-0.3,0.5-0.3,0.9c0,0.5,0.1,0.9,0.4,1.2
	c0.3,0.3,0.8,0.8,1.6,1.5c0.8,0.7,1.4,1.3,1.8,1.9c0.4,0.6,0.6,1.3,0.6,2.1c0,1-0.3,1.8-0.9,2.4s-1.5,0.9-2.5,0.9
	c-1,0-1.7-0.3-2.3-1c-0.6-0.7-0.9-1.5-0.9-2.5l2.1-0.3c0,0.6,0.2,1.1,0.4,1.4c0.2,0.3,0.5,0.5,0.9,0.5c0.4,0,0.7-0.1,0.9-0.3
	c0.2-0.2,0.3-0.5,0.3-0.9c0-0.6-0.2-1-0.5-1.4c-0.3-0.4-0.9-0.9-1.6-1.5c-0.8-0.6-1.3-1.2-1.7-1.8c-0.4-0.6-0.6-1.3-0.6-2.1
	c0-0.7,0.1-1.2,0.4-1.7c0.3-0.5,0.6-0.8,1.2-1.1c0.5-0.2,1.1-0.4,1.8-0.4c0.6,0,1.1,0.1,1.5,0.4c0.4,0.3,0.8,0.6,1,1.1
	C278.4,153.7,278.5,154.3,278.6,154.9z M286.4,164.7h-6V152h5.8v1.9h-3.6v3.3h2.8v1.9h-2.8v3.8h3.9V164.7z M294.3,160.1l1.4-8.1h1.8
	l1.5,8.1h0l1.2-8.1h2l-2.2,12.8h-1.8l-1.6-8.4h0l-1.5,8.4h-1.8l-2.4-12.8h2L294.3,160.1L294.3,160.1z M303.7,161.6v-6.6
	c0-1,0.3-1.7,0.9-2.3c0.6-0.6,1.4-0.9,2.5-0.9c1.1,0,1.9,0.3,2.5,0.9s0.9,1.4,0.9,2.3v6.6c0,0.9-0.3,1.7-0.9,2.3s-1.4,0.9-2.5,0.9
	c-1.1,0-1.9-0.3-2.5-0.9C303.9,163.4,303.7,162.6,303.7,161.6z M305.8,155.1v6.5c0,0.5,0.1,0.9,0.3,1.1s0.5,0.3,0.9,0.3
	s0.7-0.1,0.9-0.3s0.3-0.6,0.3-1.1v-6.5c0-0.5-0.1-0.9-0.3-1.1c-0.2-0.2-0.5-0.3-0.9-0.3s-0.7,0.1-0.9,0.3
	C305.9,154.3,305.8,154.6,305.8,155.1z M314.6,159.5v5.2h-2.2V152h3c1.2,0,2.2,0.3,2.8,0.9c0.6,0.6,0.9,1.5,0.9,2.9
	c0,0.9-0.1,1.6-0.4,2.2c-0.3,0.5-0.6,0.9-1.1,1.1l1.8,5.8h-2.2l-1.5-5.3C315.4,159.5,315,159.5,314.6,159.5z M314.6,153.8v3.9h0.8
	c0.4,0,0.7-0.1,0.9-0.2s0.4-0.3,0.5-0.6s0.2-0.7,0.2-1.2c0-0.5-0.1-0.9-0.2-1.2s-0.3-0.5-0.5-0.6s-0.6-0.2-0.9-0.2H314.6z
	 M323.2,164.7h-2.2V152h2.2v4.7h0l2.3-4.7h2.2l-2.3,4.7l2.6,8h-2.2l-1.8-5.9h0l-0.8,1.4V164.7z M334.9,154.9l-2.1,0.2
	c0-0.5-0.2-0.9-0.4-1.1c-0.2-0.2-0.5-0.3-0.8-0.3c-0.4,0-0.6,0.1-0.8,0.3c-0.2,0.2-0.3,0.5-0.3,0.9c0,0.5,0.1,0.9,0.4,1.2
	c0.3,0.3,0.8,0.8,1.6,1.5c0.8,0.7,1.4,1.3,1.8,1.9c0.4,0.6,0.6,1.3,0.6,2.1c0,1-0.3,1.8-0.9,2.4s-1.5,0.9-2.5,0.9
	c-1,0-1.7-0.3-2.3-1c-0.6-0.7-0.9-1.5-0.9-2.5l2.1-0.3c0,0.6,0.2,1.1,0.4,1.4c0.2,0.3,0.5,0.5,0.9,0.5c0.4,0,0.7-0.1,0.9-0.3
	c0.2-0.2,0.3-0.5,0.3-0.9c0-0.6-0.2-1-0.5-1.4c-0.3-0.4-0.9-0.9-1.6-1.5c-0.8-0.6-1.3-1.2-1.7-1.8c-0.4-0.6-0.6-1.3-0.6-2.1
	c0-0.7,0.1-1.2,0.4-1.7c0.3-0.5,0.6-0.8,1.2-1.1c0.5-0.2,1.1-0.4,1.8-0.4c0.6,0,1.1,0.1,1.5,0.4c0.4,0.3,0.8,0.6,1,1.1
	C334.7,153.7,334.9,154.3,334.9,154.9z M338.9,164.7h-2.2V152h2.2v5.2h2.3V152h2.2v12.8h-2.2v-5.7h-2.3V164.7z M345.4,161.6v-6.6
	c0-1,0.3-1.7,0.9-2.3c0.6-0.6,1.4-0.9,2.5-0.9c1.1,0,1.9,0.3,2.5,0.9s0.9,1.4,0.9,2.3v6.6c0,0.9-0.3,1.7-0.9,2.3s-1.4,0.9-2.5,0.9
	c-1.1,0-1.9-0.3-2.5-0.9C345.7,163.4,345.4,162.6,345.4,161.6z M347.6,155.1v6.5c0,0.5,0.1,0.9,0.3,1.1s0.5,0.3,0.9,0.3
	s0.7-0.1,0.9-0.3s0.3-0.6,0.3-1.1v-6.5c0-0.5-0.1-0.9-0.3-1.1c-0.2-0.2-0.5-0.3-0.9-0.3s-0.7,0.1-0.9,0.3
	C347.7,154.3,347.6,154.6,347.6,155.1z M356.4,164.7h-2.2V152h3.1c1.4,0,2.4,0.3,3,0.9c0.6,0.6,0.9,1.5,0.9,2.9
	c0,0.9-0.1,1.6-0.4,2.2c-0.3,0.6-0.7,1-1.3,1.2c-0.6,0.3-1.3,0.4-2.2,0.4h-0.9V164.7z M356.4,153.8v3.9h0.8c0.5,0,0.9-0.1,1.1-0.2
	s0.5-0.3,0.6-0.6c0.1-0.3,0.2-0.7,0.2-1.2c0-0.8-0.1-1.3-0.4-1.5s-0.8-0.4-1.5-0.4H356.4z M369,154.9l-2.1,0.2
	c0-0.5-0.2-0.9-0.4-1.1c-0.2-0.2-0.5-0.3-0.8-0.3c-0.4,0-0.6,0.1-0.8,0.3c-0.2,0.2-0.3,0.5-0.3,0.9c0,0.5,0.1,0.9,0.4,1.2
	c0.3,0.3,0.8,0.8,1.6,1.5c0.8,0.7,1.4,1.3,1.8,1.9c0.4,0.6,0.6,1.3,0.6,2.1c0,1-0.3,1.8-0.9,2.4s-1.5,0.9-2.5,0.9
	c-1,0-1.7-0.3-2.3-1c-0.6-0.7-0.9-1.5-0.9-2.5l2.1-0.3c0,0.6,0.2,1.1,0.4,1.4c0.2,0.3,0.5,0.5,0.9,0.5c0.4,0,0.7-0.1,0.9-0.3
	c0.2-0.2,0.3-0.5,0.3-0.9c0-0.6-0.2-1-0.5-1.4c-0.3-0.4-0.9-0.9-1.6-1.5c-0.8-0.6-1.3-1.2-1.7-1.8c-0.4-0.6-0.6-1.3-0.6-2.1
	c0-0.7,0.1-1.2,0.4-1.7c0.3-0.5,0.6-0.8,1.2-1.1c0.5-0.2,1.1-0.4,1.8-0.4c0.6,0,1.1,0.1,1.5,0.4s0.8,0.6,1,1.1
	C368.7,153.7,368.9,154.3,369,154.9z M376.5,152v2.1l-1.2,2.2h-0.9l0.9-2.2h-0.8V152H376.5z M384.2,164.7h-6V163
	c1-1.5,1.7-2.5,2.1-3.1c0.4-0.6,0.8-1.2,1.1-1.8c0.3-0.6,0.6-1.1,0.7-1.7c0.2-0.5,0.3-1,0.3-1.5c0-0.5-0.1-0.9-0.3-1.1
	s-0.4-0.3-0.7-0.3c-0.3,0-0.6,0.1-0.8,0.4s-0.3,0.6-0.3,1v0.9h-2.1v-0.6c0-0.6,0.1-1.2,0.4-1.7c0.3-0.5,0.6-0.9,1.1-1.2
	c0.5-0.3,1.1-0.4,1.7-0.4c0.4,0,0.8,0.1,1.2,0.2c0.4,0.2,0.7,0.4,0.9,0.6c0.3,0.3,0.5,0.6,0.6,0.9c0.1,0.3,0.2,0.7,0.2,1.1
	c0,0.6-0.1,1.1-0.2,1.5s-0.3,1-0.6,1.6c-0.3,0.6-0.7,1.3-1.2,2.1c-0.5,0.8-1.2,1.8-2.1,3h3.8V164.7z M386,161h2v0.9
	c0,0.9,0.3,1.3,1,1.3c0.7,0,1-0.5,1-1.5v-1c0-0.4-0.1-0.8-0.2-1.1s-0.3-0.5-0.6-0.6c-0.3-0.1-0.6-0.2-1.1-0.2v-1.7
	c0.4,0,0.8-0.1,1-0.2c0.3-0.1,0.4-0.3,0.6-0.6c0.1-0.3,0.2-0.7,0.2-1.2c0-0.6-0.1-1-0.2-1.3c-0.1-0.3-0.4-0.4-0.7-0.4
	c-0.3,0-0.6,0.1-0.7,0.3c-0.2,0.2-0.2,0.5-0.2,1v0.5h-2v-0.6c0-0.9,0.3-1.6,0.8-2.1c0.5-0.5,1.2-0.8,2.2-0.8c0.6,0,1.1,0.2,1.5,0.5
	c0.4,0.3,0.7,0.7,1,1.2c0.2,0.5,0.3,1,0.3,1.6c0,0.8-0.1,1.4-0.3,1.8s-0.5,0.8-1.1,1.1c0.4,0.2,0.8,0.5,1,0.7c0.2,0.3,0.4,0.6,0.5,1
	s0.1,0.9,0.1,1.5c0,1.3-0.3,2.2-0.8,2.8c-0.5,0.6-1.3,0.9-2.4,0.9c-1.9,0-2.9-1-2.9-3.1V161z"/>
</svg>
