<?xml version="1.0" encoding="utf-8" standalone="yes"?> <svg width="1000" height="1000" viewBox="-1 -1 35 35" xmlns="http://www.w3.org/2000/svg" xmlns:xlink="http://www.w3.org/1999/xlink" shape-rendering="crispEdges" id="qr code"><rect id="qr background" fill-opacity="1" fill="rgb(255, 255, 255)" x="-1" y="-1" width="35" height="35"></rect><path fill-opacity="1" fill="rgb(0, 0, 0)" id="qr dark pixels" fill-rule="evenodd" d="M 8 0 L 9 0 L 9 1 L 8 1 z M 10 0 L 11 0 L 11 1 L 12 1 L 12 0 L 14 0 L 14 2 L 16 2 L 16 0 L 18 0 L 18 1 L 17 1 L 17 3 L 16 3 L 16 4 L 17 4 L 17 7 L 18 7 L 18 8 L 20 8 L 20 9 L 19 9 L 19 12 L 18 12 L 18 11 L 17 11 L 17 10 L 18 10 L 18 9 L 15 9 L 15 7 L 16 7 L 16 5 L 15 5 L 15 7 L 14 7 L 14 6 L 13 6 L 13 5 L 12 5 L 12 6 L 11 6 L 11 8 L 12 8 L 12 6 L 13 6 L 13 8 L 14 8 L 14 10 L 15 10 L 15 11 L 14 11 L 14 12 L 13 12 L 13 11 L 11 11 L 11 13 L 10 13 L 10 14 L 11 14 L 11 13 L 12 13 L 12 12 L 13 12 L 13 14 L 12 14 L 12 16 L 11 16 L 11 15 L 9 15 L 9 16 L 7 16 L 7 15 L 6 15 L 6 16 L 7 16 L 7 17 L 6 17 L 6 18 L 4 18 L 4 19 L 3 19 L 3 18 L 2 18 L 2 17 L 1 17 L 1 18 L 2 18 L 2 19 L 3 19 L 3 20 L 2 20 L 2 21 L 3 21 L 3 20 L 5 20 L 5 19 L 6 19 L 6 20 L 7 20 L 7 21 L 4 21 L 4 23 L 3 23 L 3 25 L 2 25 L 2 24 L 1 24 L 1 23 L 2 23 L 2 22 L 0 22 L 0 21 L 1 21 L 1 19 L 0 19 L 0 16 L 1 16 L 1 15 L 2 15 L 2 16 L 3 16 L 3 17 L 5 17 L 5 16 L 4 16 L 4 15 L 5 15 L 5 14 L 8 14 L 8 13 L 9 13 L 9 10 L 10 10 L 10 5 L 11 5 L 11 4 L 12 4 L 12 3 L 13 3 L 13 2 L 11 2 L 11 4 L 9 4 L 9 5 L 8 5 L 8 2 L 9 2 L 9 1 L 10 1 zM 11 9 L 12 9 L 12 10 L 11 10 z M 19 0 L 20 0 L 20 1 L 19 1 z M 20 1 L 21 1 L 21 3 L 23 3 L 23 4 L 22 4 L 22 5 L 21 5 L 21 4 L 20 4 L 20 3 L 19 3 L 19 2 L 20 2 z M 23 1 L 25 1 L 25 2 L 23 2 z M 17 3 L 18 3 L 18 4 L 17 4 z M 24 3 L 25 3 L 25 8 L 24 8 L 24 9 L 23 9 L 23 10 L 22 10 L 22 9 L 21 9 L 21 8 L 23 8 L 23 7 L 24 7 L 24 5 L 23 5 L 23 4 L 24 4 z M 19 5 L 21 5 L 21 7 L 20 7 L 20 6 L 19 6 z M 8 6 L 9 6 L 9 7 L 8 7 z M 18 6 L 19 6 L 19 7 L 18 7 z M 22 6 L 23 6 L 23 7 L 22 7 z M 0 8 L 4 8 L 4 9 L 3 9 L 3 11 L 4 11 L 4 12 L 7 12 L 7 11 L 6 11 L 6 10 L 8 10 L 8 13 L 4 13 L 4 14 L 1 14 L 1 15 L 0 15 L 0 13 L 1 13 L 1 12 L 0 12 L 0 11 L 2 11 L 2 9 L 0 9 z M 6 8 L 7 8 L 7 9 L 6 9 z M 8 8 L 9 8 L 9 10 L 8 10 z M 25 8 L 26 8 L 26 10 L 25 10 z M 28 8 L 31 8 L 31 9 L 30 9 L 30 10 L 33 10 L 33 11 L 29 11 L 29 12 L 28 12 L 28 10 L 29 10 L 29 9 L 28 9 z M 32 8 L 33 8 L 33 9 L 32 9 z M 4 9 L 5 9 L 5 11 L 4 11 z M 20 9 L 21 9 L 21 10 L 22 10 L 22 11 L 21 11 L 21 12 L 20 12 z M 23 10 L 25 10 L 25 12 L 26 12 L 26 13 L 25 13 L 25 14 L 22 14 L 22 13 L 21 13 L 21 12 L 23 12 L 23 13 L 24 13 L 24 11 L 23 11 z M 26 10 L 27 10 L 27 12 L 26 12 z M 16 11 L 17 11 L 17 12 L 18 12 L 18 13 L 17 13 L 17 14 L 15 14 L 15 15 L 16 15 L 16 16 L 14 16 L 14 15 L 13 15 L 13 14 L 14 14 L 14 12 L 16 12 z M 19 12 L 20 12 L 20 13 L 19 13 z M 29 12 L 30 12 L 30 13 L 31 13 L 31 15 L 33 15 L 33 17 L 32 17 L 32 19 L 33 19 L 33 20 L 31 20 L 31 16 L 29 16 L 29 15 L 30 15 L 30 14 L 29 14 z M 32 12 L 33 12 L 33 14 L 32 14 z M 26 13 L 28 13 L 28 14 L 29 14 L 29 15 L 26 15 L 26 16 L 27 16 L 27 17 L 26 17 L 26 18 L 27 18 L 27 17 L 30 17 L 30 18 L 29 18 L 29 19 L 28 19 L 28 20 L 29 20 L 29 21 L 27 21 L 27 19 L 26 19 L 26 20 L 25 20 L 25 19 L 24 19 L 24 18 L 25 18 L 25 16 L 23 16 L 23 15 L 25 15 L 25 14 L 26 14 z M 18 14 L 20 14 L 20 16 L 19 16 L 19 17 L 18 17 z M 21 15 L 22 15 L 22 16 L 21 16 z M 10 16 L 11 16 L 11 18 L 10 18 z M 22 16 L 23 16 L 23 17 L 22 17 z M 7 17 L 8 17 L 8 18 L 7 18 z M 15 17 L 16 17 L 16 18 L 17 18 L 17 19 L 18 19 L 18 20 L 20 20 L 20 21 L 19 21 L 19 23 L 20 23 L 20 21 L 24 21 L 24 20 L 25 20 L 25 22 L 24 22 L 24 23 L 25 23 L 25 22 L 26 22 L 26 23 L 27 23 L 27 24 L 24 24 L 24 27 L 23 27 L 23 25 L 20 25 L 20 24 L 18 24 L 18 22 L 17 22 L 17 25 L 18 25 L 18 26 L 15 26 L 15 23 L 16 23 L 16 20 L 15 20 L 15 21 L 13 21 L 13 20 L 14 20 L 14 19 L 13 19 L 13 20 L 11 20 L 11 19 L 12 19 L 12 18 L 15 18 zM 21 22 L 23 22 L 23 23 L 22 23 L 22 24 L 21 24 z M 17 17 L 18 17 L 18 18 L 17 18 z M 19 17 L 22 17 L 22 19 L 20 19 L 20 18 L 19 18 z M 6 18 L 7 18 L 7 19 L 6 19 z M 8 18 L 9 18 L 9 23 L 8 23 L 8 22 L 7 22 L 7 21 L 8 21 z M 22 19 L 24 19 L 24 20 L 22 20 z M 10 21 L 11 21 L 11 22 L 10 22 z M 30 21 L 31 21 L 31 22 L 33 22 L 33 24 L 31 24 L 31 23 L 30 23 z M 5 22 L 7 22 L 7 23 L 6 23 L 6 24 L 7 24 L 7 23 L 8 23 L 8 25 L 5 25 L 5 24 L 4 24 L 4 23 L 5 23 z M 11 22 L 12 22 L 12 24 L 11 24 L 11 25 L 13 25 L 13 23 L 14 23 L 14 26 L 13 26 L 13 28 L 12 28 L 12 26 L 10 26 L 10 23 L 11 23 z M 28 22 L 29 22 L 29 23 L 28 23 z M 29 23 L 30 23 L 30 24 L 29 24 z M 0 24 L 1 24 L 1 25 L 0 25 z M 30 24 L 31 24 L 31 25 L 30 25 z M 8 25 L 9 25 L 9 26 L 8 26 z M 29 25 L 30 25 L 30 27 L 33 27 L 33 29 L 32 29 L 32 31 L 31 31 L 31 28 L 29 28 z M 32 25 L 33 25 L 33 26 L 32 26 z M 9 26 L 10 26 L 10 27 L 9 27 z M 19 26 L 20 26 L 20 27 L 23 27 L 23 28 L 22 28 L 22 30 L 23 30 L 23 32 L 22 32 L 22 31 L 21 31 L 21 32 L 20 32 L 20 30 L 19 30 L 19 29 L 18 29 L 18 27 L 19 27 z M 9 28 L 10 28 L 10 29 L 9 29 z M 11 28 L 12 28 L 12 29 L 11 29 z M 16 28 L 17 28 L 17 29 L 16 29 z M 23 28 L 24 28 L 24 29 L 26 29 L 26 30 L 28 30 L 28 31 L 25 31 L 25 32 L 24 32 L 24 30 L 23 30 z M 8 29 L 9 29 L 9 31 L 10 31 L 10 32 L 9 32 L 9 33 L 8 33 z M 10 29 L 11 29 L 11 31 L 10 31 z M 12 29 L 16 29 L 16 30 L 17 30 L 17 31 L 18 31 L 18 32 L 19 32 L 19 33 L 16 33 L 16 31 L 15 31 L 15 33 L 13 33 L 13 32 L 14 32 L 14 31 L 13 31 L 13 30 L 12 30 z M 17 29 L 18 29 L 18 30 L 17 30 z M 28 29 L 29 29 L 29 30 L 28 30 z M 32 31 L 33 31 L 33 32 L 32 32 z M 10 32 L 11 32 L 11 33 L 10 33 z M 25 32 L 29 32 L 29 33 L 25 33 z"></path><path id="qr squares" d="M0,0h7h0v0v7v0h0h-7h0v0v-7v0h0zM1,1h5h0v0v5v0h0h-5h0v0v-5v0h0zM2,2h3h0v0v3v0h0h-3h0v0v-3v0h0z M26,0h7h0v0v7v0h0h-7h0v0v-7v0h0zM27,1h5h0v0v5v0h0h-5h0v0v-5v0h0zM28,2h3h0v0v3v0h0h-3h0v0v-3v0h0z M0,26h7h0v0v7v0h0h-7h0v0v-7v0h0zM1,27h5h0v0v5v0h0h-5h0v0v-5v0h0zM2,28h3h0v0v3v0h0h-3h0v0v-3v0h0zM24,24h5h0v0v5v0h0h-5h0v0v-5v0h0zM25,25h3h0v0v3v0h0h-3h0v0v-3v0h0zM26,26h1h0v0v1v0h0h-1h0v0v-1v0h0z" fill-rule="evenodd" fill-opacity="1" fill="rgb(0, 0, 0)"></path></svg>